<svg width="44" height="43" viewBox="0 0 44 43" fill="none" xmlns="http://www.w3.org/2000/svg">
<g filter="url(#filter0_d_11_652)">
<rect x="4.5" width="35" height="35" rx="3" fill="black" shape-rendering="crispEdges"/>
<path d="M13.5833 17.4997C13.5833 13.7677 13.5833 11.9017 14.7427 10.7424C15.9021 9.58301 17.768 9.58301 21.5 9.58301C25.2319 9.58301 27.0979 9.58301 28.2573 10.7424C29.4167 11.9017 29.4167 13.7677 29.4167 17.4997C29.4167 21.2316 29.4167 23.0976 28.2573 24.257C27.0979 25.4163 25.2319 25.4163 21.5 25.4163C17.768 25.4163 15.9021 25.4163 14.7427 24.257C13.5833 23.0976 13.5833 21.2316 13.5833 17.4997Z" stroke="white" stroke-opacity="0.7" stroke-width="1.25" stroke-linejoin="round"/>
<path d="M25.25 17.5C25.25 19.5711 23.5711 21.25 21.5 21.25C19.4289 21.25 17.75 19.5711 17.75 17.5C17.75 15.4289 19.4289 13.75 21.5 13.75C23.5711 13.75 25.25 15.4289 25.25 17.5Z" stroke="white" stroke-opacity="0.7" stroke-width="1.25"/>
<path d="M26.0898 12.917H26.0823" stroke="white" stroke-opacity="0.7" stroke-width="1.66667" stroke-linecap="round" stroke-linejoin="round"/>
</g>
<defs>
<filter id="filter0_d_11_652" x="0.5" y="0" width="43" height="43" filterUnits="userSpaceOnUse" color-interpolation-filters="sRGB">
<feFlood flood-opacity="0" result="BackgroundImageFix"/>
<feColorMatrix in="SourceAlpha" type="matrix" values="0 0 0 0 0 0 0 0 0 0 0 0 0 0 0 0 0 0 127 0" result="hardAlpha"/>
<feOffset dy="4"/>
<feGaussianBlur stdDeviation="2"/>
<feComposite in2="hardAlpha" operator="out"/>
<feColorMatrix type="matrix" values="0 0 0 0 1 0 0 0 0 1 0 0 0 0 1 0 0 0 0.1 0"/>
<feBlend mode="normal" in2="BackgroundImageFix" result="effect1_dropShadow_11_652"/>
<feBlend mode="normal" in="SourceGraphic" in2="effect1_dropShadow_11_652" result="shape"/>
</filter>
</defs>
</svg>
