<svg width="44" height="43" viewBox="0 0 44 43" fill="none" xmlns="http://www.w3.org/2000/svg">
<g filter="url(#filter0_d_11_655)">
<rect x="4.5" width="35" height="35" rx="3" fill="black" shape-rendering="crispEdges"/>
<path d="M21.4878 20.3402L24.189 23.4113C25.1897 24.5491 25.6902 25.118 26.2139 24.9795C26.7377 24.841 26.9173 24.0923 27.2765 22.5948L29.2691 14.2882C29.8223 11.9819 30.0989 10.8288 29.484 10.26C28.8692 9.69122 27.8033 10.1144 25.6717 10.9607L15.7823 14.8871C14.0774 15.5639 13.225 15.9024 13.1709 16.484C13.1653 16.5435 13.1653 16.6034 13.1706 16.6629C13.2229 17.2447 14.0743 17.5861 15.7771 18.2686C16.5486 18.5778 16.9344 18.7325 17.211 19.0287C17.2421 19.0619 17.272 19.0964 17.3006 19.132C17.5555 19.4487 17.6642 19.8642 17.8817 20.6953L18.2888 22.2508C18.5004 23.0596 18.6062 23.464 18.8834 23.5192C19.1606 23.5742 19.4019 23.2389 19.8845 22.5682L21.4878 20.3402ZM21.4878 20.3402L21.223 20.0642C20.9216 19.7501 20.7709 19.5931 20.7709 19.3979C20.7709 19.2027 20.9216 19.0457 21.223 18.7315L24.2005 15.6284" stroke="white" stroke-opacity="0.7" stroke-width="1.25" stroke-linecap="round" stroke-linejoin="round"/>
</g>
<defs>
<filter id="filter0_d_11_655" x="0.5" y="0" width="43" height="43" filterUnits="userSpaceOnUse" color-interpolation-filters="sRGB">
<feFlood flood-opacity="0" result="BackgroundImageFix"/>
<feColorMatrix in="SourceAlpha" type="matrix" values="0 0 0 0 0 0 0 0 0 0 0 0 0 0 0 0 0 0 127 0" result="hardAlpha"/>
<feOffset dy="4"/>
<feGaussianBlur stdDeviation="2"/>
<feComposite in2="hardAlpha" operator="out"/>
<feColorMatrix type="matrix" values="0 0 0 0 1 0 0 0 0 1 0 0 0 0 1 0 0 0 0.1 0"/>
<feBlend mode="normal" in2="BackgroundImageFix" result="effect1_dropShadow_11_655"/>
<feBlend mode="normal" in="SourceGraphic" in2="effect1_dropShadow_11_655" result="shape"/>
</filter>
</defs>
</svg>
